<svg width="32" height="32" viewBox="0 0 32 32" fill="none" xmlns="http://www.w3.org/2000/svg">
<path d="M5.33366 21.3333V5.33329H2.66699V2.66663H6.66699C7.02061 2.66663 7.35975 2.8071 7.6098 3.05715C7.85985 3.3072 8.00033 3.64634 8.00033 3.99996V20H24.5843L27.251 9.33329H10.667V6.66663H28.9603C29.163 6.66663 29.363 6.71284 29.5451 6.80174C29.7273 6.89064 29.8868 7.01989 30.0114 7.17968C30.1361 7.33946 30.2227 7.52556 30.2647 7.72384C30.3067 7.92212 30.3029 8.12736 30.2537 8.32396L26.9203 21.6573C26.8481 21.9456 26.6816 22.2015 26.4473 22.3844C26.2129 22.5673 25.9242 22.6666 25.627 22.6666H6.66699C6.31337 22.6666 5.97423 22.5262 5.72418 22.2761C5.47413 22.0261 5.33366 21.6869 5.33366 21.3333ZM8.00033 30.6666C7.29308 30.6666 6.6148 30.3857 6.11471 29.8856C5.61461 29.3855 5.33366 28.7072 5.33366 28C5.33366 27.2927 5.61461 26.6144 6.11471 26.1143C6.6148 25.6142 7.29308 25.3333 8.00033 25.3333C8.70757 25.3333 9.38585 25.6142 9.88594 26.1143C10.386 26.6144 10.667 27.2927 10.667 28C10.667 28.7072 10.386 29.3855 9.88594 29.8856C9.38585 30.3857 8.70757 30.6666 8.00033 30.6666ZM24.0003 30.6666C23.2931 30.6666 22.6148 30.3857 22.1147 29.8856C21.6146 29.3855 21.3337 28.7072 21.3337 28C21.3337 27.2927 21.6146 26.6144 22.1147 26.1143C22.6148 25.6142 23.2931 25.3333 24.0003 25.3333C24.7076 25.3333 25.3858 25.6142 25.8859 26.1143C26.386 26.6144 26.667 27.2927 26.667 28C26.667 28.7072 26.386 29.3855 25.8859 29.8856C25.3858 30.3857 24.7076 30.6666 24.0003 30.6666Z" fill="#E7E7E7"/>
</svg>
